<mxfile host="Electron" agent="Mozilla/5.0 (Windows NT 10.0; Win64; x64) AppleWebKit/537.36 (KHTML, like Gecko) draw.io/26.2.15 Chrome/134.0.6998.205 Electron/35.2.1 Safari/537.36" version="26.2.15">
  <diagram name="Page-1" id="e7e014a7-5840-1c2e-5031-d8a46d1fe8dd">
    <mxGraphModel dx="1213" dy="770" grid="1" gridSize="10" guides="1" tooltips="1" connect="1" arrows="1" fold="1" page="1" pageScale="1" pageWidth="1169" pageHeight="826" background="none" math="0" shadow="0">
      <root>
        <mxCell id="0" />
        <mxCell id="1" parent="0" />
        <mxCell id="2" value="Thread 1" style="swimlane;whiteSpace=wrap;labelBackgroundColor=none;fillColor=#09555B;strokeColor=#BAC8D3;fontColor=#EEEEEE;" parent="1" vertex="1">
          <mxGeometry x="164.5" y="128" width="280" height="570" as="geometry" />
        </mxCell>
        <mxCell id="5" value="" style="ellipse;shape=startState;fillColor=#09555B;strokeColor=#BAC8D3;labelBackgroundColor=none;fontColor=#EEEEEE;" parent="2" vertex="1">
          <mxGeometry x="100" y="40" width="30" height="30" as="geometry" />
        </mxCell>
        <mxCell id="6" value="" style="edgeStyle=elbowEdgeStyle;elbow=horizontal;verticalAlign=bottom;endArrow=open;endSize=8;strokeColor=#0B4D6A;endFill=1;rounded=0;labelBackgroundColor=none;fontColor=default;" parent="2" source="5" target="7" edge="1">
          <mxGeometry x="100" y="40" as="geometry">
            <mxPoint x="115" y="110" as="targetPoint" />
          </mxGeometry>
        </mxCell>
        <mxCell id="7" value="idle" style="labelBackgroundColor=none;fillColor=#09555B;strokeColor=#BAC8D3;fontColor=#EEEEEE;" parent="2" vertex="1">
          <mxGeometry x="60" y="110" width="110" height="50" as="geometry" />
        </mxCell>
        <mxCell id="8" value="user action" style="labelBackgroundColor=none;fillColor=#09555B;strokeColor=#BAC8D3;fontColor=#EEEEEE;" parent="2" vertex="1">
          <mxGeometry x="60" y="220" width="110" height="50" as="geometry" />
        </mxCell>
        <mxCell id="9" value="" style="endArrow=open;strokeColor=#0B4D6A;endFill=1;rounded=0;labelBackgroundColor=none;fontColor=default;" parent="2" source="7" target="8" edge="1">
          <mxGeometry relative="1" as="geometry" />
        </mxCell>
        <mxCell id="10" value="post command" style="labelBackgroundColor=none;fillColor=#09555B;strokeColor=#BAC8D3;fontColor=#EEEEEE;" parent="2" vertex="1">
          <mxGeometry x="60" y="325" width="110" height="50" as="geometry" />
        </mxCell>
        <mxCell id="11" value="" style="endArrow=open;strokeColor=#0B4D6A;endFill=1;rounded=0;labelBackgroundColor=none;fontColor=default;" parent="2" source="8" target="10" edge="1">
          <mxGeometry relative="1" as="geometry" />
        </mxCell>
        <mxCell id="12" value="" style="edgeStyle=elbowEdgeStyle;elbow=horizontal;strokeColor=#0B4D6A;endArrow=open;endFill=1;rounded=0;labelBackgroundColor=none;fontColor=default;" parent="2" source="10" target="7" edge="1">
          <mxGeometry width="100" height="100" relative="1" as="geometry">
            <mxPoint x="160" y="290" as="sourcePoint" />
            <mxPoint x="260" y="190" as="targetPoint" />
            <Array as="points">
              <mxPoint x="30" y="250" />
            </Array>
          </mxGeometry>
        </mxCell>
        <mxCell id="3" value="Thread 2" style="swimlane;whiteSpace=wrap;labelBackgroundColor=none;fillColor=#09555B;strokeColor=#BAC8D3;fontColor=#EEEEEE;" parent="1" vertex="1">
          <mxGeometry x="444.5" y="128" width="280" height="570" as="geometry" />
        </mxCell>
        <mxCell id="13" value="" style="ellipse;shape=startState;fillColor=#09555B;strokeColor=#BAC8D3;labelBackgroundColor=none;fontColor=#EEEEEE;" parent="3" vertex="1">
          <mxGeometry x="60" y="40" width="30" height="30" as="geometry" />
        </mxCell>
        <mxCell id="14" value="" style="edgeStyle=elbowEdgeStyle;elbow=horizontal;verticalAlign=bottom;endArrow=open;endSize=8;strokeColor=#0B4D6A;endFill=1;rounded=0;labelBackgroundColor=none;fontColor=default;" parent="3" source="13" target="15" edge="1">
          <mxGeometry x="40" y="20" as="geometry">
            <mxPoint x="55" y="90" as="targetPoint" />
          </mxGeometry>
        </mxCell>
        <mxCell id="15" value="idle" style="labelBackgroundColor=none;fillColor=#09555B;strokeColor=#BAC8D3;fontColor=#EEEEEE;" parent="3" vertex="1">
          <mxGeometry x="20" y="110" width="110" height="50" as="geometry" />
        </mxCell>
        <mxCell id="16" value="check for &#xa;new commands" style="labelBackgroundColor=none;fillColor=#09555B;strokeColor=#BAC8D3;fontColor=#EEEEEE;" parent="3" vertex="1">
          <mxGeometry x="20" y="220" width="110" height="50" as="geometry" />
        </mxCell>
        <mxCell id="17" value="" style="endArrow=open;strokeColor=#0B4D6A;endFill=1;rounded=0;labelBackgroundColor=none;fontColor=default;" parent="3" source="15" target="16" edge="1">
          <mxGeometry relative="1" as="geometry" />
        </mxCell>
        <mxCell id="18" value="command queue" style="labelBackgroundColor=none;fillColor=#09555B;strokeColor=#BAC8D3;fontColor=#EEEEEE;" parent="3" vertex="1">
          <mxGeometry x="20" y="325" width="110" height="50" as="geometry" />
        </mxCell>
        <mxCell id="19" value="" style="endArrow=open;strokeColor=#0B4D6A;endFill=1;rounded=0;labelBackgroundColor=none;fontColor=default;" parent="3" source="16" target="18" edge="1">
          <mxGeometry relative="1" as="geometry" />
        </mxCell>
        <mxCell id="21" value="queue empty" style="rhombus;fillColor=#09555B;strokeColor=#BAC8D3;labelBackgroundColor=none;fontColor=#EEEEEE;" parent="3" vertex="1">
          <mxGeometry x="150" y="225" width="80" height="40" as="geometry" />
        </mxCell>
        <mxCell id="22" value="yes" style="edgeStyle=elbowEdgeStyle;elbow=horizontal;align=left;verticalAlign=bottom;endArrow=open;endSize=8;strokeColor=#0B4D6A;exitX=0.5;exitY=0;endFill=1;rounded=0;entryX=0.75;entryY=0.5;entryPerimeter=0;labelBackgroundColor=none;fontColor=default;" parent="3" source="21" target="25" edge="1">
          <mxGeometry x="-1" relative="1" as="geometry">
            <mxPoint x="160" y="150" as="targetPoint" />
            <Array as="points">
              <mxPoint x="190" y="180" />
            </Array>
          </mxGeometry>
        </mxCell>
        <mxCell id="23" value="no" style="edgeStyle=elbowEdgeStyle;elbow=horizontal;align=left;verticalAlign=top;endArrow=open;endSize=8;strokeColor=#0B4D6A;endFill=1;rounded=0;labelBackgroundColor=none;fontColor=default;" parent="3" source="21" target="30" edge="1">
          <mxGeometry x="-1" relative="1" as="geometry">
            <mxPoint x="190" y="305" as="targetPoint" />
          </mxGeometry>
        </mxCell>
        <mxCell id="24" value="" style="endArrow=open;strokeColor=#0B4D6A;endFill=1;rounded=0;labelBackgroundColor=none;fontColor=default;" parent="3" source="16" target="21" edge="1">
          <mxGeometry relative="1" as="geometry" />
        </mxCell>
        <mxCell id="25" value="" style="shape=line;strokeWidth=6;strokeColor=#BAC8D3;rotation=90;labelBackgroundColor=none;fillColor=#09555B;fontColor=#EEEEEE;" parent="3" vertex="1">
          <mxGeometry x="130" y="127.5" width="50" height="15" as="geometry" />
        </mxCell>
        <mxCell id="26" value="" style="edgeStyle=elbowEdgeStyle;elbow=horizontal;verticalAlign=bottom;endArrow=open;endSize=8;strokeColor=#0B4D6A;endFill=1;rounded=0;labelBackgroundColor=none;fontColor=default;" parent="3" source="25" target="15" edge="1">
          <mxGeometry x="130" y="90" as="geometry">
            <mxPoint x="230" y="140" as="targetPoint" />
          </mxGeometry>
        </mxCell>
        <mxCell id="30" value="dispatch&#xa;command&#xa;worker thread" style="labelBackgroundColor=none;fillColor=#09555B;strokeColor=#BAC8D3;fontColor=#EEEEEE;" parent="3" vertex="1">
          <mxGeometry x="140" y="325" width="110" height="50" as="geometry" />
        </mxCell>
        <mxCell id="31" value="critical&#xa;section" style="shape=note;whiteSpace=wrap;size=17;labelBackgroundColor=none;fillColor=#09555B;strokeColor=#BAC8D3;fontColor=#EEEEEE;" parent="3" vertex="1">
          <mxGeometry x="105" y="490" width="100" height="50" as="geometry" />
        </mxCell>
        <mxCell id="32" value="" style="endArrow=none;strokeColor=#0B4D6A;endFill=0;rounded=0;dashed=1;labelBackgroundColor=none;fontColor=default;" parent="3" source="18" target="31" edge="1">
          <mxGeometry relative="1" as="geometry" />
        </mxCell>
        <mxCell id="34" value="" style="whiteSpace=wrap;strokeColor=#BAC8D3;fillColor=#09555B;labelBackgroundColor=none;fontColor=#EEEEEE;" parent="3" vertex="1">
          <mxGeometry x="245" y="395" width="5" height="45" as="geometry" />
        </mxCell>
        <mxCell id="41" value="" style="edgeStyle=elbowEdgeStyle;elbow=horizontal;entryX=0;entryY=0.5;strokeColor=#0B4D6A;endArrow=open;endFill=1;rounded=0;labelBackgroundColor=none;fontColor=default;" parent="3" source="30" target="34" edge="1">
          <mxGeometry width="100" height="100" relative="1" as="geometry">
            <mxPoint x="60" y="480" as="sourcePoint" />
            <mxPoint x="160" y="380" as="targetPoint" />
            <Array as="points">
              <mxPoint x="195" y="400" />
            </Array>
          </mxGeometry>
        </mxCell>
        <mxCell id="4" value="Thread 3" style="swimlane;whiteSpace=wrap;labelBackgroundColor=none;fillColor=#09555B;strokeColor=#BAC8D3;fontColor=#EEEEEE;" parent="1" vertex="1">
          <mxGeometry x="724.5" y="128" width="280" height="570" as="geometry" />
        </mxCell>
        <mxCell id="33" value="process&#xa;command" style="labelBackgroundColor=none;fillColor=#09555B;strokeColor=#BAC8D3;fontColor=#EEEEEE;" parent="4" vertex="1">
          <mxGeometry x="90" y="405" width="110" height="50" as="geometry" />
        </mxCell>
        <mxCell id="35" value="" style="edgeStyle=elbowEdgeStyle;elbow=horizontal;strokeColor=#0B4D6A;endArrow=open;endFill=1;rounded=0;entryX=0.25;entryY=0.5;entryPerimeter=0;labelBackgroundColor=none;fontColor=default;" parent="4" target="25" edge="1">
          <mxGeometry width="100" height="100" relative="1" as="geometry">
            <mxPoint x="-30" y="410" as="sourcePoint" />
            <mxPoint x="-120" y="120" as="targetPoint" />
            <Array as="points">
              <mxPoint x="-10" y="135" />
            </Array>
          </mxGeometry>
        </mxCell>
        <mxCell id="37" value="" style="edgeStyle=none;strokeColor=#0B4D6A;endArrow=open;endFill=1;rounded=0;labelBackgroundColor=none;fontColor=default;" parent="4" target="33" edge="1">
          <mxGeometry width="100" height="100" relative="1" as="geometry">
            <mxPoint x="-30" y="429.5" as="sourcePoint" />
            <mxPoint x="90" y="429.5" as="targetPoint" />
          </mxGeometry>
        </mxCell>
        <mxCell id="38" value="" style="ellipse;shape=endState;fillColor=#09555B;strokeColor=#BAC8D3;labelBackgroundColor=none;fontColor=#EEEEEE;" parent="4" vertex="1">
          <mxGeometry x="130" y="500" width="30" height="30" as="geometry" />
        </mxCell>
        <mxCell id="39" value="" style="endArrow=open;strokeColor=#0B4D6A;endFill=1;rounded=0;labelBackgroundColor=none;fontColor=default;" parent="4" source="33" target="38" edge="1">
          <mxGeometry relative="1" as="geometry" />
        </mxCell>
        <mxCell id="20" value="" style="endArrow=open;strokeColor=#0B4D6A;endFill=1;rounded=0;labelBackgroundColor=none;fontColor=default;" parent="1" source="10" target="18" edge="1">
          <mxGeometry relative="1" as="geometry" />
        </mxCell>
        <mxCell id="lyTpyZEk_1ZjZFudlgv6-41" value="事务处理业务" style="swimlane;whiteSpace=wrap;labelBackgroundColor=none;fillColor=#09555B;strokeColor=#BAC8D3;fontColor=#EEEEEE;" vertex="1" parent="1">
          <mxGeometry x="164.5" y="840" width="635.5" height="520" as="geometry" />
        </mxCell>
        <mxCell id="lyTpyZEk_1ZjZFudlgv6-42" value="" style="ellipse;shape=startState;fillColor=#09555B;strokeColor=#BAC8D3;labelBackgroundColor=none;fontColor=#EEEEEE;" vertex="1" parent="lyTpyZEk_1ZjZFudlgv6-41">
          <mxGeometry x="100" y="40" width="30" height="30" as="geometry" />
        </mxCell>
        <mxCell id="lyTpyZEk_1ZjZFudlgv6-43" value="" style="edgeStyle=elbowEdgeStyle;elbow=horizontal;verticalAlign=bottom;endArrow=open;endSize=8;strokeColor=#0B4D6A;endFill=1;rounded=0;labelBackgroundColor=none;fontColor=default;" edge="1" parent="lyTpyZEk_1ZjZFudlgv6-41" source="lyTpyZEk_1ZjZFudlgv6-42" target="lyTpyZEk_1ZjZFudlgv6-44">
          <mxGeometry x="100" y="40" as="geometry">
            <mxPoint x="115" y="110" as="targetPoint" />
          </mxGeometry>
        </mxCell>
        <mxCell id="lyTpyZEk_1ZjZFudlgv6-44" value="用户反馈" style="labelBackgroundColor=none;fillColor=#09555B;strokeColor=#BAC8D3;fontColor=#EEEEEE;" vertex="1" parent="lyTpyZEk_1ZjZFudlgv6-41">
          <mxGeometry x="60" y="110" width="110" height="50" as="geometry" />
        </mxCell>
        <mxCell id="lyTpyZEk_1ZjZFudlgv6-57" value="" style="ellipse;shape=startState;fillColor=#09555B;strokeColor=#BAC8D3;labelBackgroundColor=none;fontColor=#EEEEEE;" vertex="1" parent="lyTpyZEk_1ZjZFudlgv6-41">
          <mxGeometry x="305.5" y="40" width="30" height="30" as="geometry" />
        </mxCell>
        <mxCell id="lyTpyZEk_1ZjZFudlgv6-58" value="" style="edgeStyle=elbowEdgeStyle;elbow=horizontal;verticalAlign=bottom;endArrow=open;endSize=8;strokeColor=#0B4D6A;endFill=1;rounded=0;labelBackgroundColor=none;fontColor=default;" edge="1" parent="lyTpyZEk_1ZjZFudlgv6-41" source="lyTpyZEk_1ZjZFudlgv6-57" target="lyTpyZEk_1ZjZFudlgv6-59">
          <mxGeometry x="-64.5" y="-790" as="geometry">
            <mxPoint x="320.5" y="110" as="targetPoint" />
          </mxGeometry>
        </mxCell>
        <mxCell id="lyTpyZEk_1ZjZFudlgv6-59" value="设备报警" style="labelBackgroundColor=none;fillColor=#09555B;strokeColor=#BAC8D3;fontColor=#EEEEEE;" vertex="1" parent="lyTpyZEk_1ZjZFudlgv6-41">
          <mxGeometry x="265.5" y="110" width="110" height="50" as="geometry" />
        </mxCell>
        <mxCell id="lyTpyZEk_1ZjZFudlgv6-61" value="" style="endArrow=open;strokeColor=#0B4D6A;endFill=1;rounded=0;labelBackgroundColor=none;fontColor=default;" edge="1" parent="lyTpyZEk_1ZjZFudlgv6-41" source="lyTpyZEk_1ZjZFudlgv6-59" target="lyTpyZEk_1ZjZFudlgv6-74">
          <mxGeometry relative="1" as="geometry">
            <mxPoint x="320.5" y="210" as="targetPoint" />
          </mxGeometry>
        </mxCell>
        <mxCell id="lyTpyZEk_1ZjZFudlgv6-62" value="管理员处理" style="labelBackgroundColor=none;fillColor=#09555B;strokeColor=#BAC8D3;fontColor=#EEEEEE;" vertex="1" parent="lyTpyZEk_1ZjZFudlgv6-41">
          <mxGeometry x="265.5" y="325" width="110" height="50" as="geometry" />
        </mxCell>
        <mxCell id="lyTpyZEk_1ZjZFudlgv6-63" value="" style="endArrow=open;strokeColor=#0B4D6A;endFill=1;rounded=0;labelBackgroundColor=none;fontColor=default;" edge="1" parent="lyTpyZEk_1ZjZFudlgv6-41" source="lyTpyZEk_1ZjZFudlgv6-74" target="lyTpyZEk_1ZjZFudlgv6-62">
          <mxGeometry relative="1" as="geometry">
            <mxPoint x="320.5" y="269.9999999999998" as="sourcePoint" />
          </mxGeometry>
        </mxCell>
        <mxCell id="lyTpyZEk_1ZjZFudlgv6-65" value="" style="ellipse;shape=startState;fillColor=#09555B;strokeColor=#BAC8D3;labelBackgroundColor=none;fontColor=#EEEEEE;" vertex="1" parent="lyTpyZEk_1ZjZFudlgv6-41">
          <mxGeometry x="505.5" y="40" width="30" height="30" as="geometry" />
        </mxCell>
        <mxCell id="lyTpyZEk_1ZjZFudlgv6-66" value="" style="edgeStyle=elbowEdgeStyle;elbow=horizontal;verticalAlign=bottom;endArrow=open;endSize=8;strokeColor=#0B4D6A;endFill=1;rounded=0;labelBackgroundColor=none;fontColor=default;" edge="1" parent="lyTpyZEk_1ZjZFudlgv6-41" source="lyTpyZEk_1ZjZFudlgv6-65" target="lyTpyZEk_1ZjZFudlgv6-67">
          <mxGeometry x="-64.5" y="-790" as="geometry">
            <mxPoint x="520.5" y="110" as="targetPoint" />
          </mxGeometry>
        </mxCell>
        <mxCell id="lyTpyZEk_1ZjZFudlgv6-67" value="车位报警" style="labelBackgroundColor=none;fillColor=#09555B;strokeColor=#BAC8D3;fontColor=#EEEEEE;" vertex="1" parent="lyTpyZEk_1ZjZFudlgv6-41">
          <mxGeometry x="465.5" y="110" width="110" height="50" as="geometry" />
        </mxCell>
        <mxCell id="lyTpyZEk_1ZjZFudlgv6-69" value="" style="endArrow=open;strokeColor=#0B4D6A;endFill=1;rounded=0;labelBackgroundColor=none;fontColor=default;" edge="1" parent="lyTpyZEk_1ZjZFudlgv6-41" source="lyTpyZEk_1ZjZFudlgv6-67" target="lyTpyZEk_1ZjZFudlgv6-74">
          <mxGeometry relative="1" as="geometry">
            <mxPoint x="520.5" y="220" as="targetPoint" />
          </mxGeometry>
        </mxCell>
        <mxCell id="lyTpyZEk_1ZjZFudlgv6-71" value="" style="endArrow=open;strokeColor=#0B4D6A;endFill=1;rounded=0;labelBackgroundColor=none;fontColor=default;exitX=0.5;exitY=1;exitDx=0;exitDy=0;" edge="1" parent="lyTpyZEk_1ZjZFudlgv6-41" source="lyTpyZEk_1ZjZFudlgv6-44" target="lyTpyZEk_1ZjZFudlgv6-74">
          <mxGeometry relative="1" as="geometry">
            <mxPoint x="520.5" y="269.9999999999998" as="sourcePoint" />
            <mxPoint x="285.5" y="240" as="targetPoint" />
          </mxGeometry>
        </mxCell>
        <mxCell id="lyTpyZEk_1ZjZFudlgv6-74" value="" style="html=1;points=[[0,0,0,0,5],[0,1,0,0,-5],[1,0,0,0,5],[1,1,0,0,-5]];perimeter=orthogonalPerimeter;outlineConnect=0;targetShapes=umlLifeline;portConstraint=eastwest;newEdgeStyle={&quot;curved&quot;:0,&quot;rounded&quot;:0};strokeColor=#BAC8D3;fontColor=#EEEEEE;fillColor=#09555B;rotation=90;" vertex="1" parent="lyTpyZEk_1ZjZFudlgv6-41">
          <mxGeometry x="315.5" y="155" width="10" height="190" as="geometry" />
        </mxCell>
        <mxCell id="lyTpyZEk_1ZjZFudlgv6-75" value="" style="ellipse;shape=endState;fillColor=#09555B;strokeColor=#BAC8D3;labelBackgroundColor=none;fontColor=#EEEEEE;" vertex="1" parent="lyTpyZEk_1ZjZFudlgv6-41">
          <mxGeometry x="305.5" y="420" width="30" height="30" as="geometry" />
        </mxCell>
        <mxCell id="lyTpyZEk_1ZjZFudlgv6-76" value="" style="endArrow=open;endFill=1;endSize=12;html=1;rounded=0;strokeColor=#0B4D6A;entryX=0.5;entryY=0;entryDx=0;entryDy=0;exitX=0.5;exitY=1;exitDx=0;exitDy=0;" edge="1" parent="lyTpyZEk_1ZjZFudlgv6-41" source="lyTpyZEk_1ZjZFudlgv6-62" target="lyTpyZEk_1ZjZFudlgv6-75">
          <mxGeometry width="160" relative="1" as="geometry">
            <mxPoint x="235.5" y="350" as="sourcePoint" />
            <mxPoint x="395.5" y="350" as="targetPoint" />
          </mxGeometry>
        </mxCell>
      </root>
    </mxGraphModel>
  </diagram>
</mxfile>
